<?xml version="1.0" ?><svg style="enable-background:new 0 0 1080 1080;" version="1.1" viewBox="0 0 1080 1080" xml:space="preserve" xmlns="http://www.w3.org/2000/svg" xmlns:xlink="http://www.w3.org/1999/xlink"><g id="_x30_1_Net"/><g id="_x30_2_Android"/><g id="Layer_3"/><g id="Layer_4"/><g id="Layer_5"><g><path d="M990,149.87v602.786    c0,31-25.143,56.143-56.143,56.143h-17.429c4.714-18.571,7.214-38.072,7.214-58.143c0-130.071-105.428-235.5-235.5-235.5    s-235.571,105.429-235.571,235.5c0,20.071,2.5,39.572,7.214,58.143H146.143c-31,0-56.143-25.143-56.143-56.143V149.87    c0-31,25.143-56.071,56.143-56.071h787.714C964.857,93.798,990,118.869,990,149.87z" style="fill:none;stroke:#2B4B9B;stroke-width:13;stroke-linecap:round;stroke-linejoin:round;"/><path d="M990,237.946v-88.042    c0-31-25.13-56.131-56.131-56.131H146.131c-31,0-56.131,25.13-56.131,56.131v88.042H990z" style="fill:none;stroke:#2B4B9B;stroke-width:13;stroke-linecap:round;stroke-linejoin:round;"/><path d="M227.286,165.824    c0,18.286-14.857,33.143-33.143,33.143c-18.286,0-33.143-14.857-33.143-33.143s14.857-33.071,33.143-33.071    C212.429,132.752,227.286,147.538,227.286,165.824z" style="fill:none;stroke:#2B4B9B;stroke-width:13;stroke-linecap:round;stroke-linejoin:round;"/><path d="M356.508,165.824    c0,18.286-14.857,33.143-33.143,33.143c-18.286,0-33.143-14.857-33.143-33.143s14.857-33.071,33.143-33.071    C341.651,132.752,356.508,147.538,356.508,165.824z" style="fill:none;stroke:#2B4B9B;stroke-width:13;stroke-linecap:round;stroke-linejoin:round;"/><path d="M485.731,165.824    c0,18.286-14.857,33.143-33.143,33.143c-18.286,0-33.143-14.857-33.143-33.143s14.857-33.071,33.143-33.071    C470.874,132.752,485.731,147.538,485.731,165.824z" style="fill:none;stroke:#2B4B9B;stroke-width:13;stroke-linecap:round;stroke-linejoin:round;"/><path d="M923.643,750.655    c0,20.071-2.5,39.572-7.214,58.143c-25.929,102-118.286,177.429-228.286,177.429s-202.429-75.429-228.357-177.429    c-4.714-18.571-7.214-38.072-7.214-58.143c0-130.071,105.5-235.5,235.571-235.5S923.643,620.584,923.643,750.655z" style="fill:none;stroke:#2B4B9B;stroke-width:13;stroke-linecap:round;stroke-linejoin:round;"/><g><g><path d="M615.964,715.209      l-78.071,38.215l77.428,37.5c1.857,1,3.072,1.786,4,2.428c1.857,1.357,3.214,3.214,4.071,5.5c0.643,1.643,1,3.571,1.215,5.857      c0.143,1.786,0.286,4.214,0.286,7.214c0,2.714-0.143,4.929-0.357,6.643c-0.357,2.786-1.143,4.929-2.429,6.571      c-1.786,2.286-4.357,3.571-7.143,3.571c-0.429,0-0.857,0-1.214-0.071c-1.643-0.214-3.286-0.786-5.143-1.786L497.25,770.567      c-2.714-1.357-4.643-3.928-5.857-7.642c-0.786-2.5-1.143-5.715-1.143-9.929c0-1.786,0.071-3.428,0.214-5      c0.215-2,0.643-3.643,1.214-5.072c0.5-1.357,1.143-2.571,1.857-3.643c1.143-1.715,2.714-2.929,4.5-3.714l110.786-55.857      c6.571-3.143,11.286-0.857,13.5,2.357c1.786,2.5,2.571,6.143,2.571,12.5c0,3-0.143,5.357-0.286,7.143      c-0.143,2.143-0.5,3.928-1,5.5c-0.786,2.286-2,4.143-3.643,5.5C618.964,713.567,617.607,714.424,615.964,715.209z" style="fill:none;stroke:#2B4B9B;stroke-width:13;stroke-linecap:round;stroke-linejoin:round;"/><path d="M748.893,629.424      c0.429,2.286,0.215,4.714-0.786,7.214l-85.571,234.643c-0.643,2.071-1.572,3.857-2.786,5.286      c-1.429,1.572-3.143,2.786-5.143,3.571c-1.5,0.572-3.142,1-5.071,1.286c-1.714,0.214-3.714,0.357-6.072,0.357      c-2.857,0-5.286-0.214-7.357-0.643c-2.571-0.572-4.643-1.429-6.286-2.643c-2.286-1.643-3.786-3.928-4.357-6.572      c-0.5-2.428-0.143-5,1.071-7.643l85.429-234.357c0.572-1.786,1.5-3.643,2.786-5.143c1.286-1.429,2.857-2.643,4.643-3.428      c1.572-0.786,3.5-1.286,5.786-1.5c3.643-0.357,9.5-0.429,13.143,0.429c2.429,0.5,4.357,1.286,5.929,2.357      C746.678,624.21,748.321,626.638,748.893,629.424z" style="fill:none;stroke:#2B4B9B;stroke-width:13;stroke-linecap:round;stroke-linejoin:round;"/><path d="M885.964,753.567      c0,2-0.143,3.786-0.357,5.357c-0.286,1.714-0.572,3.143-0.929,4.357c-0.643,2-1.5,3.643-2.714,4.929      c-1.071,1.214-2.286,2.143-3.643,2.786l-111.143,56.071c-2.143,1-3.857,1.429-5.5,1.571h-0.572      c-3.071,0-5.857-1.571-7.571-4.214c-1-1.572-1.714-3.5-2-5.929c-0.214-1.643-0.357-3.714-0.357-6.286      c0-2.857,0.072-5.071,0.143-6.786c0.143-2.285,0.429-4.143,1-5.786c0.714-2.214,1.928-4.071,3.643-5.5      c1.143-1,2.5-1.857,4.214-2.572l77.928-38.357l-77.5-37.357c-1.571-0.714-2.928-1.5-4.071-2.357      c-1.857-1.286-3.214-3.214-4.071-5.643c-0.643-1.643-1-3.643-1.143-6.071c-0.071-1.715-0.143-4.071-0.143-6.929      s0.143-5.143,0.357-6.714c0.358-2.5,1-4.5,2.072-6.071c1.928-2.786,5.071-4.286,8.5-3.786c1.786,0.214,3.428,0.786,5.286,1.786      l111.357,56.072c2.714,1.357,4.643,3.929,5.929,7.643C885.536,746.353,885.964,749.567,885.964,753.567z" style="fill:none;stroke:#2B4B9B;stroke-width:13;stroke-linecap:round;stroke-linejoin:round;"/></g></g><line style="fill:none;stroke:#2B4B9B;stroke-width:13;stroke-linecap:round;stroke-linejoin:round;" x1="166.821" x2="913.179" y1="311.321" y2="311.321"/><line style="fill:none;stroke:#2B4B9B;stroke-width:13;stroke-linecap:round;stroke-linejoin:round;" x1="166.821" x2="913.179" y1="409.637" y2="409.637"/><g><line style="fill:none;stroke:#2B4B9B;stroke-width:13;stroke-linecap:round;stroke-linejoin:round;" x1="166.821" x2="466.391" y1="507.952" y2="507.952"/><line style="fill:none;stroke:#2B4B9B;stroke-width:13;stroke-linecap:round;stroke-linejoin:round;" x1="166.821" x2="419.445" y1="606.268" y2="606.268"/><line style="fill:none;stroke:#2B4B9B;stroke-width:13;stroke-linecap:round;stroke-linejoin:round;" x1="166.821" x2="372.5" y1="704.584" y2="704.584"/></g></g></g><g id="Layer_6"/><g id="Layer_7"/><g id="Layer_8"/><g id="Layer_9"/><g id="Layer_10"/><g id="Layer_11"/><g id="Layer_12"/><g id="Layer_13"/><g id="Layer_14"/><g id="Layer_15"/><g id="Layer_16"/><g id="Layer_17"/><g id="Layer_18"/><g id="Layer_19"/><g id="Layer_20"/><g id="Layer_21"/></svg>